<mxfile host="app.diagrams.net" modified="2023-05-23T07:47:30.544Z" agent="Mozilla/5.0 (Windows NT 10.0; Win64; x64; rv:109.0) Gecko/20100101 Firefox/113.0" etag="C_-8586-c4m77vwnxrXg" version="21.3.2" type="github">
  <diagram name="Page-1" id="8727eaf9-70c4-50b5-f805-aabfae5eb5db">
    <mxGraphModel dx="1018" dy="700" grid="1" gridSize="10" guides="1" tooltips="1" connect="1" arrows="1" fold="1" page="1" pageScale="1" pageWidth="1100" pageHeight="850" background="none" math="0" shadow="0">
      <root>
        <mxCell id="0" />
        <object label="GebÃ¤ude" id="qneg2PHzCLRIxDqVpNJL-159">
          <mxCell style="" parent="0" />
        </object>
        <mxCell id="qneg2PHzCLRIxDqVpNJL-162" value="" style="rounded=0;whiteSpace=wrap;html=1;fontFamily=Helvetica;fontSize=11;fontColor=default;fillColor=#9bff99;strokeColor=none;" vertex="1" parent="qneg2PHzCLRIxDqVpNJL-159">
          <mxGeometry x="490" y="430" width="740" height="430" as="geometry" />
        </mxCell>
        <mxCell id="qneg2PHzCLRIxDqVpNJL-160" value="" style="rounded=0;whiteSpace=wrap;html=1;fontFamily=Helvetica;fontSize=11;fontColor=default;fillColor=#FF9999;strokeColor=none;" vertex="1" parent="qneg2PHzCLRIxDqVpNJL-159">
          <mxGeometry x="40" y="250" width="450" height="390" as="geometry" />
        </mxCell>
        <mxCell id="qneg2PHzCLRIxDqVpNJL-161" value="" style="rounded=0;whiteSpace=wrap;html=1;fontFamily=Helvetica;fontSize=11;fontColor=default;strokeColor=none;fillColor=#FF9999;" vertex="1" parent="qneg2PHzCLRIxDqVpNJL-159">
          <mxGeometry x="150" y="250" width="440" height="220" as="geometry" />
        </mxCell>
        <mxCell id="qneg2PHzCLRIxDqVpNJL-163" value="" style="rounded=0;whiteSpace=wrap;html=1;fontFamily=Helvetica;fontSize=11;fontColor=default;fillColor=#9bff99;strokeColor=none;" vertex="1" parent="qneg2PHzCLRIxDqVpNJL-159">
          <mxGeometry x="1060" y="430" width="210" height="430" as="geometry" />
        </mxCell>
        <mxCell id="qneg2PHzCLRIxDqVpNJL-164" value="" style="rounded=0;whiteSpace=wrap;html=1;fontFamily=Helvetica;fontSize=11;fontColor=default;fillColor=#9aa7fe;strokeColor=none;" vertex="1" parent="qneg2PHzCLRIxDqVpNJL-159">
          <mxGeometry x="590" y="90" width="470" height="340" as="geometry" />
        </mxCell>
        <mxCell id="qneg2PHzCLRIxDqVpNJL-174" style="edgeStyle=orthogonalEdgeStyle;shape=connector;rounded=0;jumpStyle=arc;jumpSize=10;orthogonalLoop=1;jettySize=auto;html=1;exitX=0;exitY=0.5;exitDx=0;exitDy=0;exitPerimeter=0;entryX=1;entryY=0.29;entryDx=0;entryDy=0;entryPerimeter=0;labelBackgroundColor=default;strokeColor=#6F0000;fontFamily=Helvetica;fontSize=11;fontColor=default;endArrow=none;endFill=0;fillColor=#a20025;" edge="1" parent="qneg2PHzCLRIxDqVpNJL-159" source="qneg2PHzCLRIxDqVpNJL-173" target="qneg2PHzCLRIxDqVpNJL-51">
          <mxGeometry relative="1" as="geometry" />
        </mxCell>
        <mxCell id="qneg2PHzCLRIxDqVpNJL-173" value="" style="strokeWidth=2;html=1;shape=stencil(fVLREoIgEPwa3h1wnOmxrP6D9EpGBAZI6+9D0ClCmeGB3T329gBEatNRBQgXgg6AyBlhfJKMg3Ybx06BKosAuxhSo6CxgRupZvTGISjGatnDxFq7HGGiA83srJILKo6uZl6kvtGmf2j5FG0krDJwzpSBtPdfsleAC3pHCOHrpncImSlQdI6fCKs8yBG+rauoNSlzvVcHzsSPAzlEFvn42xZxiCo/v+OTCT278yakvksNmcfavVDvmhz2bPh/nvgA);whiteSpace=wrap;points=[[0,0.5,0,0,0],[1,0.5,0,0,0]];rotation=0;labelBackgroundColor=none;" vertex="1" parent="qneg2PHzCLRIxDqVpNJL-159">
          <mxGeometry x="700" y="470" width="30" height="30" as="geometry" />
        </mxCell>
        <mxCell id="qneg2PHzCLRIxDqVpNJL-176" style="edgeStyle=orthogonalEdgeStyle;shape=connector;rounded=0;jumpStyle=arc;jumpSize=10;orthogonalLoop=1;jettySize=auto;html=1;exitX=0;exitY=0.5;exitDx=0;exitDy=0;exitPerimeter=0;entryX=1;entryY=0.5;entryDx=0;entryDy=0;entryPerimeter=0;labelBackgroundColor=default;strokeColor=#6F0000;fontFamily=Helvetica;fontSize=11;fontColor=default;endArrow=none;endFill=0;fillColor=#a20025;" edge="1" parent="qneg2PHzCLRIxDqVpNJL-159" source="qneg2PHzCLRIxDqVpNJL-175" target="qneg2PHzCLRIxDqVpNJL-80">
          <mxGeometry relative="1" as="geometry" />
        </mxCell>
        <mxCell id="qneg2PHzCLRIxDqVpNJL-175" value="" style="strokeWidth=2;html=1;shape=stencil(fVLREoIgEPwa3h1wnOmxrP6D9EpGBAZI6+9D0ClCmeGB3T329gBEatNRBQgXgg6AyBlhfJKMg3Ybx06BKosAuxhSo6CxgRupZvTGISjGatnDxFq7HGGiA83srJILKo6uZl6kvtGmf2j5FG0krDJwzpSBtPdfsleAC3pHCOHrpncImSlQdI6fCKs8yBG+rauoNSlzvVcHzsSPAzlEFvn42xZxiCo/v+OTCT278yakvksNmcfavVDvmhz2bPh/nvgA);whiteSpace=wrap;points=[[0,0.5,0,0,0],[1,0.5,0,0,0]];rotation=90;labelBackgroundColor=none;" vertex="1" parent="qneg2PHzCLRIxDqVpNJL-159">
          <mxGeometry x="724" y="595" width="30" height="30" as="geometry" />
        </mxCell>
        <object label="Hauptsystem" id="1">
          <mxCell style="" parent="0" />
        </object>
        <mxCell id="qneg2PHzCLRIxDqVpNJL-167" style="edgeStyle=orthogonalEdgeStyle;shape=connector;rounded=0;jumpStyle=arc;jumpSize=10;orthogonalLoop=1;jettySize=auto;html=1;exitX=0.93;exitY=0.25;exitDx=0;exitDy=0;exitPerimeter=0;entryX=0.5;entryY=0;entryDx=0;entryDy=0;entryPerimeter=0;labelBackgroundColor=default;strokeColor=#6F0000;fontFamily=Helvetica;fontSize=11;fontColor=default;endArrow=none;endFill=0;fillColor=#a20025;" edge="1" parent="1" source="qneg2PHzCLRIxDqVpNJL-106" target="qneg2PHzCLRIxDqVpNJL-120">
          <mxGeometry relative="1" as="geometry">
            <Array as="points">
              <mxPoint x="1040" y="489" />
              <mxPoint x="1040" y="619" />
            </Array>
          </mxGeometry>
        </mxCell>
        <mxCell id="qneg2PHzCLRIxDqVpNJL-171" style="edgeStyle=orthogonalEdgeStyle;shape=connector;rounded=0;jumpStyle=arc;jumpSize=10;orthogonalLoop=1;jettySize=auto;html=1;exitX=0.93;exitY=0.25;exitDx=0;exitDy=0;exitPerimeter=0;labelBackgroundColor=default;strokeColor=#6F0000;fontFamily=Helvetica;fontSize=11;fontColor=default;endArrow=none;endFill=0;fillColor=#a20025;" edge="1" parent="1" source="qneg2PHzCLRIxDqVpNJL-106" target="qneg2PHzCLRIxDqVpNJL-118">
          <mxGeometry relative="1" as="geometry">
            <Array as="points">
              <mxPoint x="1040" y="489" />
              <mxPoint x="1040" y="570" />
              <mxPoint x="1080" y="570" />
            </Array>
          </mxGeometry>
        </mxCell>
        <mxCell id="qneg2PHzCLRIxDqVpNJL-52" style="edgeStyle=orthogonalEdgeStyle;shape=connector;rounded=0;jumpStyle=arc;jumpSize=10;orthogonalLoop=1;jettySize=auto;html=1;exitX=1;exitY=0.5;exitDx=0;exitDy=0;exitPerimeter=0;entryX=0.25;entryY=0.04;entryDx=0;entryDy=0;entryPerimeter=0;labelBackgroundColor=none;strokeColor=#6F0000;fontFamily=Helvetica;fontSize=11;fontColor=default;endArrow=none;endFill=0;fillColor=#a20025;" edge="1" parent="1" source="qneg2PHzCLRIxDqVpNJL-46" target="qneg2PHzCLRIxDqVpNJL-51">
          <mxGeometry relative="1" as="geometry">
            <Array as="points">
              <mxPoint x="638" y="385" />
              <mxPoint x="638" y="410" />
            </Array>
          </mxGeometry>
        </mxCell>
        <mxCell id="qneg2PHzCLRIxDqVpNJL-48" style="edgeStyle=orthogonalEdgeStyle;shape=connector;rounded=0;jumpStyle=arc;orthogonalLoop=1;jettySize=auto;html=1;exitX=1;exitY=0.71;exitDx=0;exitDy=0;exitPerimeter=0;labelBackgroundColor=none;strokeColor=#001DBC;fontFamily=Helvetica;fontSize=11;fontColor=default;endArrow=none;endFill=0;entryX=0.75;entryY=0.04;entryDx=0;entryDy=0;entryPerimeter=0;fillColor=#0050ef;jumpSize=10;" edge="1" parent="1" source="qneg2PHzCLRIxDqVpNJL-29" target="qneg2PHzCLRIxDqVpNJL-51">
          <mxGeometry relative="1" as="geometry">
            <mxPoint x="480" y="550" as="targetPoint" />
            <Array as="points">
              <mxPoint x="480" y="361" />
              <mxPoint x="480" y="410" />
              <mxPoint x="672" y="410" />
            </Array>
          </mxGeometry>
        </mxCell>
        <mxCell id="qneg2PHzCLRIxDqVpNJL-25" value="&lt;div&gt;Kessel&lt;br&gt;&lt;/div&gt;&lt;div&gt;&amp;lt;50 kW&lt;br&gt;&lt;/div&gt;" style="rounded=0;whiteSpace=wrap;html=1;labelBackgroundColor=none;" vertex="1" parent="1">
          <mxGeometry x="80" y="290" width="80" height="120" as="geometry" />
        </mxCell>
        <mxCell id="qneg2PHzCLRIxDqVpNJL-28" style="edgeStyle=orthogonalEdgeStyle;shape=connector;rounded=0;orthogonalLoop=1;jettySize=auto;html=1;exitX=0.5;exitY=0;exitDx=0;exitDy=0;exitPerimeter=0;labelBackgroundColor=none;strokeColor=#6F0000;fontFamily=Helvetica;fontSize=11;fontColor=default;endArrow=none;endFill=0;entryX=1;entryY=0.25;entryDx=0;entryDy=0;fillColor=#a20025;" edge="1" parent="1" source="qneg2PHzCLRIxDqVpNJL-26" target="qneg2PHzCLRIxDqVpNJL-25">
          <mxGeometry relative="1" as="geometry">
            <mxPoint x="240" y="320" as="targetPoint" />
          </mxGeometry>
        </mxCell>
        <mxCell id="qneg2PHzCLRIxDqVpNJL-31" style="edgeStyle=orthogonalEdgeStyle;shape=connector;rounded=0;orthogonalLoop=1;jettySize=auto;html=1;entryX=0;entryY=0.71;entryDx=0;entryDy=0;entryPerimeter=0;labelBackgroundColor=none;strokeColor=#001DBC;fontFamily=Helvetica;fontSize=11;fontColor=default;endArrow=none;endFill=0;exitX=1;exitY=0.65;exitDx=0;exitDy=0;exitPerimeter=0;fillColor=#0050ef;" edge="1" parent="1" source="qneg2PHzCLRIxDqVpNJL-26" target="qneg2PHzCLRIxDqVpNJL-29">
          <mxGeometry relative="1" as="geometry">
            <mxPoint x="395" y="480" as="sourcePoint" />
          </mxGeometry>
        </mxCell>
        <mxCell id="qneg2PHzCLRIxDqVpNJL-26" value="" style="strokeWidth=2;html=1;shape=stencil(rZNBEoMgDEVPwx7BC7S2vQdqrIwIDlBtb18BXajVBXaGBfkfXgIERDNTsw4QwZK1gOgNEXJVXIAeJ6M6BCnFIaxDSKeQmQ4KG7Seac5yAcExVqsGBl7aaQuXNWhunUvvCF/GNW7QLGdF89TqJcuFMdsdc4SNMdut6l3x75BkKuuzrBKRxwFBcLlLSCIIKwSJQCRLRASBnib84RgpPn2ZK0TMi0YdpBDKwO4qmo36pjG9utPNNKuUhoM2r7gQ4c/8yOrJG4BXw+/1whc=);whiteSpace=wrap;points=[[0,0.65,0,0,0],[0.5,0,0,0,0],[1,0.65,0,0,0]];labelBackgroundColor=none;" vertex="1" parent="1">
          <mxGeometry x="240" y="370" width="30" height="20" as="geometry" />
        </mxCell>
        <mxCell id="qneg2PHzCLRIxDqVpNJL-30" style="edgeStyle=orthogonalEdgeStyle;shape=connector;rounded=0;orthogonalLoop=1;jettySize=auto;html=1;entryX=1;entryY=0.25;entryDx=0;entryDy=0;labelBackgroundColor=none;strokeColor=#6F0000;fontFamily=Helvetica;fontSize=11;fontColor=default;endArrow=none;endFill=0;exitX=0;exitY=0.29;exitDx=0;exitDy=0;exitPerimeter=0;jumpStyle=arc;fillColor=#a20025;" edge="1" parent="1" source="qneg2PHzCLRIxDqVpNJL-29" target="qneg2PHzCLRIxDqVpNJL-25">
          <mxGeometry relative="1" as="geometry">
            <mxPoint x="440" y="300" as="sourcePoint" />
            <Array as="points">
              <mxPoint x="240" y="320" />
            </Array>
          </mxGeometry>
        </mxCell>
        <mxCell id="qneg2PHzCLRIxDqVpNJL-45" style="edgeStyle=orthogonalEdgeStyle;shape=connector;rounded=0;orthogonalLoop=1;jettySize=auto;html=1;exitX=1;exitY=0.29;exitDx=0;exitDy=0;exitPerimeter=0;entryX=0;entryY=0.5;entryDx=0;entryDy=0;entryPerimeter=0;labelBackgroundColor=none;strokeColor=#6F0000;fontFamily=Helvetica;fontSize=11;fontColor=default;endArrow=none;endFill=0;fillColor=#a20025;" edge="1" parent="1" source="qneg2PHzCLRIxDqVpNJL-29" target="qneg2PHzCLRIxDqVpNJL-44">
          <mxGeometry relative="1" as="geometry" />
        </mxCell>
        <mxCell id="qneg2PHzCLRIxDqVpNJL-47" style="edgeStyle=orthogonalEdgeStyle;shape=connector;rounded=0;orthogonalLoop=1;jettySize=auto;html=1;exitX=1;exitY=0.29;exitDx=0;exitDy=0;exitPerimeter=0;entryX=0;entryY=0.5;entryDx=0;entryDy=0;entryPerimeter=0;labelBackgroundColor=none;strokeColor=#6F0000;fontFamily=Helvetica;fontSize=11;fontColor=default;endArrow=none;endFill=0;jumpStyle=arc;fillColor=#a20025;" edge="1" parent="1" source="qneg2PHzCLRIxDqVpNJL-29" target="qneg2PHzCLRIxDqVpNJL-46">
          <mxGeometry relative="1" as="geometry">
            <Array as="points">
              <mxPoint x="510" y="319" />
              <mxPoint x="510" y="385" />
            </Array>
          </mxGeometry>
        </mxCell>
        <mxCell id="qneg2PHzCLRIxDqVpNJL-50" style="edgeStyle=orthogonalEdgeStyle;shape=connector;rounded=0;jumpStyle=arc;orthogonalLoop=1;jettySize=auto;html=1;exitX=1;exitY=0.71;exitDx=0;exitDy=0;exitPerimeter=0;entryX=0;entryY=0.5;entryDx=0;entryDy=0;labelBackgroundColor=none;strokeColor=#001DBC;fontFamily=Helvetica;fontSize=11;fontColor=default;endArrow=none;endFill=0;jumpSize=10;fillColor=#0050ef;" edge="1" parent="1" source="qneg2PHzCLRIxDqVpNJL-29" target="qneg2PHzCLRIxDqVpNJL-49">
          <mxGeometry relative="1" as="geometry" />
        </mxCell>
        <mxCell id="qneg2PHzCLRIxDqVpNJL-29" value="1000 L" style="strokeWidth=2;html=1;shape=stencil(zZPRboMwDEW/Jo9IlKia+tix7T9casBqmiAnLfTvF3AqLWKt1D1NykPuveTYiYzSte9hQFWVFs6o9IeqqndHBjluojuKtS1F9iJ3SYIfsAniXYEJDgYl8YHdCUc6hnSEbI9MYU71pyr38Zt56foAzaljd7HHLLjHA8yEVXCPz+46Nz9JkdTWTdRmK1JVX08IwE3ccCLohOBbrqcCJvIFuwCBnM3KGeAOi8gpWgNdFvkRcfhhbxItf9WX+jVk8SHi7b9f+S/t5jd+5c10Hf3VBC3ug7HTdesYn8xjS8bIcP9SdSGvAIsrv9lifAM=);whiteSpace=wrap;points=[[0,0.14,0,0,0],[0,0.29,0,0,0],[0,0.43,0,0,0],[0,0.57,0,0,0],[0,0.71,0,0,0],[0,0.86,0,0,0],[0.25,0.04,0,0,0],[0.25,0.95,0,0,0],[0.5,0,0,0,0],[0.5,0.99,0,0,0],[0.75,0.04,0,0,0],[0.75,0.95,0,0,0],[1,0.14,0,0,0],[1,0.29,0,0,0],[1,0.43,0,0,0],[1,0.57,0,0,0],[1,0.71,0,0,0],[1,0.86,0,0,0]];labelBackgroundColor=none;" vertex="1" parent="1">
          <mxGeometry x="360" y="290" width="70" height="100" as="geometry" />
        </mxCell>
        <mxCell id="qneg2PHzCLRIxDqVpNJL-35" style="edgeStyle=orthogonalEdgeStyle;shape=connector;rounded=0;orthogonalLoop=1;jettySize=auto;html=1;exitX=0;exitY=0.66;exitDx=0;exitDy=0;exitPerimeter=0;entryX=1;entryY=0.65;entryDx=0;entryDy=0;entryPerimeter=0;labelBackgroundColor=none;strokeColor=#001DBC;fontFamily=Helvetica;fontSize=11;fontColor=default;endArrow=none;endFill=0;fillColor=#0050ef;" edge="1" parent="1" source="qneg2PHzCLRIxDqVpNJL-34" target="qneg2PHzCLRIxDqVpNJL-26">
          <mxGeometry relative="1" as="geometry" />
        </mxCell>
        <mxCell id="qneg2PHzCLRIxDqVpNJL-37" style="edgeStyle=orthogonalEdgeStyle;shape=connector;rounded=0;orthogonalLoop=1;jettySize=auto;html=1;exitX=1;exitY=0.66;exitDx=0;exitDy=0;exitPerimeter=0;entryX=0.5;entryY=0;entryDx=0;entryDy=0;labelBackgroundColor=none;strokeColor=#001DBC;fontFamily=Helvetica;fontSize=11;fontColor=default;endArrow=none;endFill=0;fillColor=#0050ef;" edge="1" parent="1" source="qneg2PHzCLRIxDqVpNJL-34" target="qneg2PHzCLRIxDqVpNJL-36">
          <mxGeometry relative="1" as="geometry" />
        </mxCell>
        <mxCell id="qneg2PHzCLRIxDqVpNJL-34" value="" style="strokeWidth=2;html=1;shape=stencil(rVRBDoMgEHwNdwU/0ND2Cb2jYiUiGKDa/r4oeECjadGEy86ww8BOAAjrmnQUwESQlgJ0BRA+CO8tAi04OCRLXFm7EvmS6I4WxmE9UYzk3Pdpo2RDB1Ya38JETRUzI4tuILnYPeNCOCdF81TyJcqAmOmOjAorYqZbOTpN3u4Qb+sTugTwvqPAmdhUSCMUFhIwQiI77iI7/hQnXCTGRMGlppu7ELb4KhMTuhEkhCup6E7CKsa5i+vOqX/F8ISXW0j8pBCaSCMUQg8oQiFmejO3OYSpbTXFCXWf1wR8AQ==);whiteSpace=wrap;points=[[0,0.66,0,0,0],[1,0.66,0,0,0]];fontFamily=Helvetica;fontSize=11;fontColor=default;rotation=90;labelBackgroundColor=none;" vertex="1" parent="1">
          <mxGeometry x="291.75" y="446.25" width="30" height="17.5" as="geometry" />
        </mxCell>
        <mxCell id="qneg2PHzCLRIxDqVpNJL-39" value="" style="group;labelBackgroundColor=none;" vertex="1" connectable="0" parent="1">
          <mxGeometry x="274" y="520" width="60" height="90" as="geometry" />
        </mxCell>
        <mxCell id="qneg2PHzCLRIxDqVpNJL-36" value="" style="shape=lineEllipse;perimeter=ellipsePerimeter;whiteSpace=wrap;html=1;backgroundOutline=1;labelBackgroundColor=none;" vertex="1" parent="qneg2PHzCLRIxDqVpNJL-39">
          <mxGeometry y="-10" width="60" height="60" as="geometry" />
        </mxCell>
        <mxCell id="qneg2PHzCLRIxDqVpNJL-38" value="&lt;div&gt;MAG &lt;br&gt;&lt;/div&gt;&lt;div&gt;150L&lt;/div&gt;" style="text;html=1;align=center;verticalAlign=middle;resizable=0;points=[];autosize=1;strokeColor=none;fillColor=none;fontSize=11;fontFamily=Helvetica;fontColor=default;labelBackgroundColor=none;" vertex="1" parent="qneg2PHzCLRIxDqVpNJL-39">
          <mxGeometry x="5" y="50" width="50" height="40" as="geometry" />
        </mxCell>
        <mxCell id="qneg2PHzCLRIxDqVpNJL-41" style="edgeStyle=orthogonalEdgeStyle;shape=connector;rounded=0;orthogonalLoop=1;jettySize=auto;html=1;exitX=0;exitY=0.5;exitDx=0;exitDy=0;exitPerimeter=0;entryX=0;entryY=0.65;entryDx=0;entryDy=0;entryPerimeter=0;labelBackgroundColor=none;strokeColor=#001DBC;fontFamily=Helvetica;fontSize=11;fontColor=default;endArrow=none;endFill=0;fillColor=#0050ef;" edge="1" parent="1" source="qneg2PHzCLRIxDqVpNJL-40" target="qneg2PHzCLRIxDqVpNJL-26">
          <mxGeometry relative="1" as="geometry" />
        </mxCell>
        <mxCell id="qneg2PHzCLRIxDqVpNJL-42" style="edgeStyle=orthogonalEdgeStyle;shape=connector;rounded=0;orthogonalLoop=1;jettySize=auto;html=1;exitX=1;exitY=0.5;exitDx=0;exitDy=0;exitPerimeter=0;entryX=1;entryY=0.75;entryDx=0;entryDy=0;labelBackgroundColor=none;strokeColor=#001DBC;fontFamily=Helvetica;fontSize=11;fontColor=default;endArrow=none;endFill=0;fillColor=#0050ef;" edge="1" parent="1" source="qneg2PHzCLRIxDqVpNJL-40" target="qneg2PHzCLRIxDqVpNJL-25">
          <mxGeometry relative="1" as="geometry" />
        </mxCell>
        <mxCell id="qneg2PHzCLRIxDqVpNJL-40" value="" style="strokeWidth=2;html=1;shape=stencil(fVLREoIgEPwa3h1wnOmxrP6D9EpGBAZI6+9D0ClCmeGB3T329gBEatNRBQgXgg6AyBlhfJKMg3Ybx06BKosAuxhSo6CxgRupZvTGISjGatnDxFq7HGGiA83srJILKo6uZl6kvtGmf2j5FG0krDJwzpSBtPdfsleAC3pHCOHrpncImSlQdI6fCKs8yBG+rauoNSlzvVcHzsSPAzlEFvn42xZxiCo/v+OTCT278yakvksNmcfavVDvmhz2bPh/nvgA);whiteSpace=wrap;points=[[0,0.5,0,0,0],[1,0.5,0,0,0]];rotation=-180;labelBackgroundColor=none;" vertex="1" parent="1">
          <mxGeometry x="180" y="370" width="30" height="30" as="geometry" />
        </mxCell>
        <mxCell id="qneg2PHzCLRIxDqVpNJL-68" style="edgeStyle=orthogonalEdgeStyle;shape=connector;rounded=0;jumpStyle=arc;jumpSize=10;orthogonalLoop=1;jettySize=auto;html=1;exitX=0;exitY=0.5;exitDx=0;exitDy=0;entryX=1;entryY=0.66;entryDx=0;entryDy=0;entryPerimeter=0;labelBackgroundColor=none;strokeColor=#001DBC;fontFamily=Helvetica;fontSize=11;fontColor=default;endArrow=none;endFill=0;fillColor=#0050ef;" edge="1" parent="1" source="qneg2PHzCLRIxDqVpNJL-49" target="qneg2PHzCLRIxDqVpNJL-67">
          <mxGeometry relative="1" as="geometry" />
        </mxCell>
        <mxCell id="qneg2PHzCLRIxDqVpNJL-44" value="" style="strokeWidth=2;html=1;shape=stencil(fVLREoIgEPwa3h1wnOmxrP6D9EpGBAZI6+9D0ClCmeGB3T329gBEatNRBQgXgg6AyBlhfJKMg3Ybx06BKosAuxhSo6CxgRupZvTGISjGatnDxFq7HGGiA83srJILKo6uZl6kvtGmf2j5FG0krDJwzpSBtPdfsleAC3pHCOHrpncImSlQdI6fCKs8yBG+rauoNSlzvVcHzsSPAzlEFvn42xZxiCo/v+OTCT278yakvksNmcfavVDvmhz2bPh/nvgA);whiteSpace=wrap;points=[[0,0.5,0,0,0],[1,0.5,0,0,0]];rotation=0;labelBackgroundColor=none;" vertex="1" parent="1">
          <mxGeometry x="540" y="304.5" width="30" height="29" as="geometry" />
        </mxCell>
        <mxCell id="qneg2PHzCLRIxDqVpNJL-46" value="" style="strokeWidth=2;html=1;shape=stencil(fVLREoIgEPwa3h1wnOmxrP6D9EpGBAZI6+9D0ClCmeGB3T329gBEatNRBQgXgg6AyBlhfJKMg3Ybx06BKosAuxhSo6CxgRupZvTGISjGatnDxFq7HGGiA83srJILKo6uZl6kvtGmf2j5FG0krDJwzpSBtPdfsleAC3pHCOHrpncImSlQdI6fCKs8yBG+rauoNSlzvVcHzsSPAzlEFvn42xZxiCo/v+OTCT278yakvksNmcfavVDvmhz2bPh/nvgA);whiteSpace=wrap;points=[[0,0.5,0,0,0],[1,0.5,0,0,0]];rotation=0;labelBackgroundColor=none;" vertex="1" parent="1">
          <mxGeometry x="540" y="370" width="30" height="30" as="geometry" />
        </mxCell>
        <mxCell id="qneg2PHzCLRIxDqVpNJL-66" style="edgeStyle=orthogonalEdgeStyle;shape=connector;rounded=0;jumpStyle=arc;jumpSize=10;orthogonalLoop=1;jettySize=auto;html=1;entryX=0;entryY=0.71;entryDx=0;entryDy=0;entryPerimeter=0;labelBackgroundColor=none;strokeColor=#001DBC;fontFamily=Helvetica;fontSize=11;fontColor=default;endArrow=none;endFill=0;fillColor=#0050ef;" edge="1" parent="1" source="qneg2PHzCLRIxDqVpNJL-49" target="qneg2PHzCLRIxDqVpNJL-64">
          <mxGeometry relative="1" as="geometry" />
        </mxCell>
        <mxCell id="qneg2PHzCLRIxDqVpNJL-49" value="T" style="ellipse;whiteSpace=wrap;html=1;aspect=fixed;labelBackgroundColor=none;" vertex="1" parent="1">
          <mxGeometry x="680" y="345" width="30" height="30" as="geometry" />
        </mxCell>
        <mxCell id="qneg2PHzCLRIxDqVpNJL-53" style="edgeStyle=orthogonalEdgeStyle;shape=connector;rounded=0;jumpStyle=arc;jumpSize=10;orthogonalLoop=1;jettySize=auto;html=1;exitX=0.75;exitY=0.04;exitDx=0;exitDy=0;exitPerimeter=0;labelBackgroundColor=none;strokeColor=#001DBC;fontFamily=Helvetica;fontSize=11;fontColor=default;endArrow=none;endFill=0;entryX=0;entryY=0.66;entryDx=0;entryDy=0;entryPerimeter=0;fillColor=#0050ef;" edge="1" parent="1" source="qneg2PHzCLRIxDqVpNJL-51" target="qneg2PHzCLRIxDqVpNJL-55">
          <mxGeometry relative="1" as="geometry">
            <mxPoint x="550" y="610" as="targetPoint" />
            <Array as="points">
              <mxPoint x="672" y="450" />
              <mxPoint x="600" y="450" />
              <mxPoint x="600" y="520" />
              <mxPoint x="549" y="520" />
            </Array>
          </mxGeometry>
        </mxCell>
        <mxCell id="qneg2PHzCLRIxDqVpNJL-74" style="edgeStyle=orthogonalEdgeStyle;shape=connector;rounded=0;jumpStyle=arc;jumpSize=10;orthogonalLoop=1;jettySize=auto;html=1;exitX=1;exitY=0.5;exitDx=0;exitDy=0;exitPerimeter=0;entryX=0;entryY=0.5;entryDx=0;entryDy=0;labelBackgroundColor=none;strokeColor=#6F0000;fontFamily=Helvetica;fontSize=11;fontColor=default;endArrow=none;endFill=0;fillColor=#a20025;" edge="1" parent="1" source="qneg2PHzCLRIxDqVpNJL-173">
          <mxGeometry relative="1" as="geometry">
            <mxPoint x="810" y="484" as="targetPoint" />
          </mxGeometry>
        </mxCell>
        <mxCell id="qneg2PHzCLRIxDqVpNJL-79" style="edgeStyle=orthogonalEdgeStyle;shape=connector;rounded=0;jumpStyle=arc;jumpSize=10;orthogonalLoop=1;jettySize=auto;html=1;exitX=1;exitY=0.71;exitDx=0;exitDy=0;exitPerimeter=0;entryX=0;entryY=0.5;entryDx=0;entryDy=0;labelBackgroundColor=none;strokeColor=#001DBC;fontFamily=Helvetica;fontSize=11;fontColor=default;endArrow=none;endFill=0;fillColor=#0050ef;" edge="1" parent="1" source="qneg2PHzCLRIxDqVpNJL-51" target="qneg2PHzCLRIxDqVpNJL-75">
          <mxGeometry relative="1" as="geometry" />
        </mxCell>
        <mxCell id="qneg2PHzCLRIxDqVpNJL-83" style="edgeStyle=orthogonalEdgeStyle;shape=connector;rounded=0;jumpStyle=arc;jumpSize=10;orthogonalLoop=1;jettySize=auto;html=1;exitX=1;exitY=0.5;exitDx=0;exitDy=0;exitPerimeter=0;entryX=0;entryY=0.5;entryDx=0;entryDy=0;entryPerimeter=0;labelBackgroundColor=none;strokeColor=#6F0000;fontFamily=Helvetica;fontSize=11;fontColor=default;endArrow=none;endFill=0;fillColor=#a20025;" edge="1" parent="1" source="qneg2PHzCLRIxDqVpNJL-173" target="qneg2PHzCLRIxDqVpNJL-80">
          <mxGeometry relative="1" as="geometry">
            <Array as="points">
              <mxPoint x="739" y="485" />
            </Array>
          </mxGeometry>
        </mxCell>
        <mxCell id="qneg2PHzCLRIxDqVpNJL-51" value="1000 L" style="strokeWidth=2;html=1;shape=stencil(zZPRboMwDEW/Jo9IlKia+tix7T9casBqmiAnLfTvF3AqLWKt1D1NykPuveTYiYzSte9hQFWVFs6o9IeqqndHBjluojuKtS1F9iJ3SYIfsAniXYEJDgYl8YHdCUc6hnSEbI9MYU71pyr38Zt56foAzaljd7HHLLjHA8yEVXCPz+46Nz9JkdTWTdRmK1JVX08IwE3ccCLohOBbrqcCJvIFuwCBnM3KGeAOi8gpWgNdFvkRcfhhbxItf9WX+jVk8SHi7b9f+S/t5jd+5c10Hf3VBC3ug7HTdesYn8xjS8bIcP9SdSGvAIsrv9lifAM=);whiteSpace=wrap;points=[[0,0.14,0,0,0],[0,0.29,0,0,0],[0,0.43,0,0,0],[0,0.57,0,0,0],[0,0.71,0,0,0],[0,0.86,0,0,0],[0.25,0.04,0,0,0],[0.25,0.95,0,0,0],[0.5,0,0,0,0],[0.5,0.99,0,0,0],[0.75,0.04,0,0,0],[0.75,0.95,0,0,0],[1,0.14,0,0,0],[1,0.29,0,0,0],[1,0.43,0,0,0],[1,0.57,0,0,0],[1,0.71,0,0,0],[1,0.86,0,0,0]];labelBackgroundColor=none;" vertex="1" parent="1">
          <mxGeometry x="620" y="455" width="70" height="100" as="geometry" />
        </mxCell>
        <mxCell id="qneg2PHzCLRIxDqVpNJL-54" style="edgeStyle=orthogonalEdgeStyle;shape=connector;rounded=0;orthogonalLoop=1;jettySize=auto;html=1;exitX=1;exitY=0.66;exitDx=0;exitDy=0;exitPerimeter=0;entryX=0.5;entryY=0;entryDx=0;entryDy=0;labelBackgroundColor=none;strokeColor=#001DBC;fontFamily=Helvetica;fontSize=11;fontColor=default;endArrow=none;endFill=0;fillColor=#0050ef;" edge="1" parent="1" source="qneg2PHzCLRIxDqVpNJL-55" target="qneg2PHzCLRIxDqVpNJL-57">
          <mxGeometry relative="1" as="geometry" />
        </mxCell>
        <mxCell id="qneg2PHzCLRIxDqVpNJL-55" value="" style="strokeWidth=2;html=1;shape=stencil(rVRBDoMgEHwNdwU/0ND2Cb2jYiUiGKDa/r4oeECjadGEy86ww8BOAAjrmnQUwESQlgJ0BRA+CO8tAi04OCRLXFm7EvmS6I4WxmE9UYzk3Pdpo2RDB1Ya38JETRUzI4tuILnYPeNCOCdF81TyJcqAmOmOjAorYqZbOTpN3u4Qb+sTugTwvqPAmdhUSCMUFhIwQiI77iI7/hQnXCTGRMGlppu7ELb4KhMTuhEkhCup6E7CKsa5i+vOqX/F8ISXW0j8pBCaSCMUQg8oQiFmejO3OYSpbTXFCXWf1wR8AQ==);whiteSpace=wrap;points=[[0,0.66,0,0,0],[1,0.66,0,0,0]];fontFamily=Helvetica;fontSize=11;fontColor=default;rotation=90;labelBackgroundColor=none;" vertex="1" parent="1">
          <mxGeometry x="537.5" y="580" width="30" height="20" as="geometry" />
        </mxCell>
        <mxCell id="qneg2PHzCLRIxDqVpNJL-56" value="" style="group;labelBackgroundColor=none;" vertex="1" connectable="0" parent="1">
          <mxGeometry x="520" y="655" width="60" height="90" as="geometry" />
        </mxCell>
        <mxCell id="qneg2PHzCLRIxDqVpNJL-57" value="" style="shape=lineEllipse;perimeter=ellipsePerimeter;whiteSpace=wrap;html=1;backgroundOutline=1;labelBackgroundColor=none;" vertex="1" parent="qneg2PHzCLRIxDqVpNJL-56">
          <mxGeometry y="-10" width="60" height="60" as="geometry" />
        </mxCell>
        <mxCell id="qneg2PHzCLRIxDqVpNJL-58" value="&lt;div&gt;MAG &lt;br&gt;&lt;/div&gt;&lt;div&gt;150L&lt;/div&gt;" style="text;html=1;align=center;verticalAlign=middle;resizable=0;points=[];autosize=1;strokeColor=none;fillColor=none;fontSize=11;fontFamily=Helvetica;fontColor=default;labelBackgroundColor=none;" vertex="1" parent="qneg2PHzCLRIxDqVpNJL-56">
          <mxGeometry x="5" y="50" width="50" height="40" as="geometry" />
        </mxCell>
        <mxCell id="qneg2PHzCLRIxDqVpNJL-59" value="T" style="ellipse;whiteSpace=wrap;html=1;aspect=fixed;labelBackgroundColor=none;" vertex="1" parent="1">
          <mxGeometry x="680" y="303.5" width="30" height="30" as="geometry" />
        </mxCell>
        <mxCell id="qneg2PHzCLRIxDqVpNJL-62" value="mÂ³" style="strokeWidth=2;html=1;shape=stencil(lVLREoIgEPwa3g3sA4rqPy69klHBQdL6+4DTmYx0phke2N1jd+cGJmRfQYeMZxpaZOLEOD8a1aD1F8+OROUZwWoJoe+wcMQNYBVcGySld9bUOKrSTU+UrtAqF1RxZtnBz4Qj5BWK+m7NQ5cLYZZtCEiCv2o9CU7otUCMX34aU8ONgQ5C90SY5dYMuBa9229lzw6N0h8O+T8WQno+KRjZlX0KeTMWNxa9uo/omjyOLP2dSLwB);whiteSpace=wrap;fillColor=#ffffff;shadow=0;verticalAlign=bottom;spacingBottom=4;points=[[0,0.5,0,0,0],[0.5,0,0,0,0],[0.5,1,0,0,0],[1,0.5,0,0,0]];labelBackgroundColor=none;" vertex="1" parent="1">
          <mxGeometry x="736" y="304" width="30" height="29" as="geometry" />
        </mxCell>
        <mxCell id="qneg2PHzCLRIxDqVpNJL-133" style="edgeStyle=orthogonalEdgeStyle;shape=connector;rounded=0;jumpStyle=arc;jumpSize=10;orthogonalLoop=1;jettySize=auto;html=1;exitX=1;exitY=0.29;exitDx=0;exitDy=0;exitPerimeter=0;entryX=1;entryY=0.5;entryDx=0;entryDy=0;entryPerimeter=0;labelBackgroundColor=default;strokeColor=#6F0000;fontFamily=Helvetica;fontSize=11;fontColor=default;endArrow=none;endFill=0;fillColor=#a20025;" edge="1" parent="1" source="qneg2PHzCLRIxDqVpNJL-64" target="qneg2PHzCLRIxDqVpNJL-131">
          <mxGeometry relative="1" as="geometry" />
        </mxCell>
        <mxCell id="qneg2PHzCLRIxDqVpNJL-134" style="edgeStyle=orthogonalEdgeStyle;shape=connector;rounded=0;jumpStyle=arc;jumpSize=10;orthogonalLoop=1;jettySize=auto;html=1;exitX=1;exitY=0.71;exitDx=0;exitDy=0;exitPerimeter=0;entryX=0.5;entryY=0;entryDx=0;entryDy=0;entryPerimeter=0;labelBackgroundColor=default;strokeColor=#001DBC;fontFamily=Helvetica;fontSize=11;fontColor=default;endArrow=none;endFill=0;fillColor=#0050ef;" edge="1" parent="1" source="qneg2PHzCLRIxDqVpNJL-64" target="qneg2PHzCLRIxDqVpNJL-131">
          <mxGeometry relative="1" as="geometry" />
        </mxCell>
        <mxCell id="qneg2PHzCLRIxDqVpNJL-135" style="edgeStyle=orthogonalEdgeStyle;shape=connector;rounded=0;jumpStyle=none;jumpSize=10;orthogonalLoop=1;jettySize=auto;html=1;exitX=1;exitY=0.71;exitDx=0;exitDy=0;exitPerimeter=0;labelBackgroundColor=default;strokeColor=#001DBC;fontFamily=Helvetica;fontSize=11;fontColor=default;endArrow=none;endFill=0;fillColor=#0050ef;" edge="1" parent="1" source="qneg2PHzCLRIxDqVpNJL-64">
          <mxGeometry relative="1" as="geometry">
            <mxPoint x="980" y="359.7142857142858" as="targetPoint" />
          </mxGeometry>
        </mxCell>
        <mxCell id="qneg2PHzCLRIxDqVpNJL-64" value="1000 L" style="strokeWidth=2;html=1;shape=stencil(zZPRboMwDEW/Jo9IlKia+tix7T9casBqmiAnLfTvF3AqLWKt1D1NykPuveTYiYzSte9hQFWVFs6o9IeqqndHBjluojuKtS1F9iJ3SYIfsAniXYEJDgYl8YHdCUc6hnSEbI9MYU71pyr38Zt56foAzaljd7HHLLjHA8yEVXCPz+46Nz9JkdTWTdRmK1JVX08IwE3ccCLohOBbrqcCJvIFuwCBnM3KGeAOi8gpWgNdFvkRcfhhbxItf9WX+jVk8SHi7b9f+S/t5jd+5c10Hf3VBC3ug7HTdesYn8xjS8bIcP9SdSGvAIsrv9lifAM=);whiteSpace=wrap;points=[[0,0.14,0,0,0],[0,0.29,0,0,0],[0,0.43,0,0,0],[0,0.57,0,0,0],[0,0.71,0,0,0],[0,0.86,0,0,0],[0.25,0.04,0,0,0],[0.25,0.95,0,0,0],[0.5,0,0,0,0],[0.5,0.99,0,0,0],[0.75,0.04,0,0,0],[0.75,0.95,0,0,0],[1,0.14,0,0,0],[1,0.29,0,0,0],[1,0.43,0,0,0],[1,0.57,0,0,0],[1,0.71,0,0,0],[1,0.86,0,0,0]];labelBackgroundColor=none;" vertex="1" parent="1">
          <mxGeometry x="800" y="289" width="70" height="100" as="geometry" />
        </mxCell>
        <mxCell id="qneg2PHzCLRIxDqVpNJL-72" style="edgeStyle=orthogonalEdgeStyle;shape=connector;rounded=0;jumpStyle=arc;jumpSize=10;orthogonalLoop=1;jettySize=auto;html=1;exitX=0;exitY=0.66;exitDx=0;exitDy=0;exitPerimeter=0;entryX=0.5;entryY=1;entryDx=0;entryDy=0;labelBackgroundColor=none;strokeColor=#001DBC;fontFamily=Helvetica;fontSize=11;fontColor=default;endArrow=none;endFill=0;fillColor=#0050ef;" edge="1" parent="1" source="qneg2PHzCLRIxDqVpNJL-67" target="qneg2PHzCLRIxDqVpNJL-70">
          <mxGeometry relative="1" as="geometry">
            <mxPoint x="632" y="208" as="targetPoint" />
            <Array as="points">
              <mxPoint x="633" y="208" />
            </Array>
          </mxGeometry>
        </mxCell>
        <mxCell id="qneg2PHzCLRIxDqVpNJL-67" value="" style="strokeWidth=2;html=1;shape=stencil(rVRBDoMgEHwNdwU/0ND2Cb2jYiUiGKDa/r4oeECjadGEy86ww8BOAAjrmnQUwESQlgJ0BRA+CO8tAi04OCRLXFm7EvmS6I4WxmE9UYzk3Pdpo2RDB1Ya38JETRUzI4tuILnYPeNCOCdF81TyJcqAmOmOjAorYqZbOTpN3u4Qb+sTugTwvqPAmdhUSCMUFhIwQiI77iI7/hQnXCTGRMGlppu7ELb4KhMTuhEkhCup6E7CKsa5i+vOqX/F8ISXW0j8pBCaSCMUQg8oQiFmejO3OYSpbTXFCXWf1wR8AQ==);whiteSpace=wrap;points=[[0,0.66,0,0,0],[1,0.66,0,0,0]];fontFamily=Helvetica;fontSize=11;fontColor=default;rotation=90;labelBackgroundColor=none;" vertex="1" parent="1">
          <mxGeometry x="621" y="251" width="30" height="22" as="geometry" />
        </mxCell>
        <mxCell id="qneg2PHzCLRIxDqVpNJL-71" value="&lt;div&gt;MAG &lt;br&gt;&lt;/div&gt;&lt;div&gt;150L&lt;/div&gt;" style="text;html=1;align=center;verticalAlign=middle;resizable=0;points=[];autosize=1;strokeColor=none;fillColor=none;fontSize=11;fontFamily=Helvetica;fontColor=default;labelBackgroundColor=none;" vertex="1" parent="1">
          <mxGeometry x="608" y="110.31" width="50" height="40" as="geometry" />
        </mxCell>
        <mxCell id="qneg2PHzCLRIxDqVpNJL-70" value="" style="shape=lineEllipse;perimeter=ellipsePerimeter;whiteSpace=wrap;html=1;backgroundOutline=1;labelBackgroundColor=none;" vertex="1" parent="1">
          <mxGeometry x="603" y="150.31" width="60" height="60" as="geometry" />
        </mxCell>
        <mxCell id="qneg2PHzCLRIxDqVpNJL-85" style="edgeStyle=orthogonalEdgeStyle;shape=connector;rounded=0;jumpStyle=arc;jumpSize=10;orthogonalLoop=1;jettySize=auto;html=1;exitX=0;exitY=0.5;exitDx=0;exitDy=0;entryX=0.5;entryY=0;entryDx=0;entryDy=0;entryPerimeter=0;labelBackgroundColor=none;strokeColor=#001DBC;fontFamily=Helvetica;fontSize=11;fontColor=default;endArrow=none;endFill=0;fillColor=#0050ef;" edge="1" parent="1" source="qneg2PHzCLRIxDqVpNJL-75" target="qneg2PHzCLRIxDqVpNJL-80">
          <mxGeometry relative="1" as="geometry">
            <Array as="points">
              <mxPoint x="790" y="526" />
              <mxPoint x="790" y="560" />
            </Array>
          </mxGeometry>
        </mxCell>
        <mxCell id="qneg2PHzCLRIxDqVpNJL-90" style="edgeStyle=orthogonalEdgeStyle;shape=connector;rounded=0;jumpStyle=none;jumpSize=10;orthogonalLoop=1;jettySize=auto;html=1;exitX=0;exitY=0.5;exitDx=0;exitDy=0;labelBackgroundColor=none;strokeColor=#001DBC;fontFamily=Helvetica;fontSize=11;fontColor=default;endArrow=none;endFill=0;entryX=0.5;entryY=0;entryDx=0;entryDy=0;fillColor=#0050ef;" edge="1" parent="1" source="qneg2PHzCLRIxDqVpNJL-75" target="qneg2PHzCLRIxDqVpNJL-91">
          <mxGeometry relative="1" as="geometry">
            <mxPoint x="740" y="720" as="targetPoint" />
            <Array as="points">
              <mxPoint x="790" y="526" />
              <mxPoint x="790" y="660" />
              <mxPoint x="741" y="660" />
            </Array>
          </mxGeometry>
        </mxCell>
        <mxCell id="qneg2PHzCLRIxDqVpNJL-99" style="edgeStyle=orthogonalEdgeStyle;shape=connector;rounded=0;jumpStyle=none;jumpSize=10;orthogonalLoop=1;jettySize=auto;html=1;exitX=0;exitY=0.5;exitDx=0;exitDy=0;entryX=0.5;entryY=0;entryDx=0;entryDy=0;labelBackgroundColor=none;strokeColor=#001DBC;fontFamily=Helvetica;fontSize=11;fontColor=default;endArrow=none;endFill=0;fillColor=#0050ef;" edge="1" parent="1" source="qneg2PHzCLRIxDqVpNJL-75" target="qneg2PHzCLRIxDqVpNJL-97">
          <mxGeometry relative="1" as="geometry">
            <Array as="points">
              <mxPoint x="790" y="526" />
              <mxPoint x="790" y="620" />
              <mxPoint x="851" y="620" />
            </Array>
          </mxGeometry>
        </mxCell>
        <mxCell id="qneg2PHzCLRIxDqVpNJL-108" style="edgeStyle=orthogonalEdgeStyle;shape=connector;rounded=0;jumpStyle=arc;jumpSize=10;orthogonalLoop=1;jettySize=auto;html=1;exitX=1;exitY=0.5;exitDx=0;exitDy=0;entryX=0.07;entryY=0.75;entryDx=0;entryDy=0;entryPerimeter=0;labelBackgroundColor=none;strokeColor=#001DBC;fontFamily=Helvetica;fontSize=11;fontColor=default;endArrow=none;endFill=0;fillColor=#0050ef;" edge="1" parent="1" source="qneg2PHzCLRIxDqVpNJL-75" target="qneg2PHzCLRIxDqVpNJL-106">
          <mxGeometry relative="1" as="geometry">
            <Array as="points">
              <mxPoint x="930" y="526" />
              <mxPoint x="930" y="521" />
            </Array>
          </mxGeometry>
        </mxCell>
        <mxCell id="qneg2PHzCLRIxDqVpNJL-75" value="T" style="ellipse;whiteSpace=wrap;html=1;aspect=fixed;labelBackgroundColor=none;" vertex="1" parent="1">
          <mxGeometry x="810" y="510.75" width="30" height="30" as="geometry" />
        </mxCell>
        <mxCell id="qneg2PHzCLRIxDqVpNJL-76" style="edgeStyle=orthogonalEdgeStyle;shape=connector;rounded=0;jumpStyle=arc;jumpSize=10;orthogonalLoop=1;jettySize=auto;html=1;exitX=1;exitY=0.5;exitDx=0;exitDy=0;entryX=0;entryY=0.5;entryDx=0;entryDy=0;entryPerimeter=0;labelBackgroundColor=none;strokeColor=#6F0000;fontFamily=Helvetica;fontSize=11;fontColor=default;endArrow=none;endFill=0;fillColor=#a20025;" edge="1" parent="1" source="qneg2PHzCLRIxDqVpNJL-77" target="qneg2PHzCLRIxDqVpNJL-78">
          <mxGeometry relative="1" as="geometry" />
        </mxCell>
        <mxCell id="qneg2PHzCLRIxDqVpNJL-77" value="T" style="ellipse;whiteSpace=wrap;html=1;aspect=fixed;labelBackgroundColor=none;" vertex="1" parent="1">
          <mxGeometry x="810" y="469.25" width="30" height="30" as="geometry" />
        </mxCell>
        <mxCell id="qneg2PHzCLRIxDqVpNJL-107" style="edgeStyle=orthogonalEdgeStyle;shape=connector;rounded=0;jumpStyle=arc;jumpSize=10;orthogonalLoop=1;jettySize=auto;html=1;exitX=1;exitY=0.5;exitDx=0;exitDy=0;exitPerimeter=0;entryX=0.07;entryY=0.25;entryDx=0;entryDy=0;entryPerimeter=0;labelBackgroundColor=none;strokeColor=#6F0000;fontFamily=Helvetica;fontSize=11;fontColor=default;endArrow=none;endFill=0;fillColor=#a20025;" edge="1" parent="1" source="qneg2PHzCLRIxDqVpNJL-78" target="qneg2PHzCLRIxDqVpNJL-106">
          <mxGeometry relative="1" as="geometry">
            <Array as="points">
              <mxPoint x="930" y="484" />
              <mxPoint x="930" y="489" />
            </Array>
          </mxGeometry>
        </mxCell>
        <mxCell id="qneg2PHzCLRIxDqVpNJL-78" value="mÂ³" style="strokeWidth=2;html=1;shape=stencil(lVLREoIgEPwa3g3sA4rqPy69klHBQdL6+4DTmYx0phke2N1jd+cGJmRfQYeMZxpaZOLEOD8a1aD1F8+OROUZwWoJoe+wcMQNYBVcGySld9bUOKrSTU+UrtAqF1RxZtnBz4Qj5BWK+m7NQ5cLYZZtCEiCv2o9CU7otUCMX34aU8ONgQ5C90SY5dYMuBa9229lzw6N0h8O+T8WQno+KRjZlX0KeTMWNxa9uo/omjyOLP2dSLwB);whiteSpace=wrap;fillColor=#ffffff;shadow=0;verticalAlign=bottom;spacingBottom=4;points=[[0,0.5,0,0,0],[0.5,0,0,0,0],[0.5,1,0,0,0],[1,0.5,0,0,0]];labelBackgroundColor=none;" vertex="1" parent="1">
          <mxGeometry x="880" y="469.75" width="30" height="29" as="geometry" />
        </mxCell>
        <mxCell id="qneg2PHzCLRIxDqVpNJL-82" value="" style="group;labelBackgroundColor=none;" vertex="1" connectable="0" parent="1">
          <mxGeometry x="710" y="540" width="44" height="40" as="geometry" />
        </mxCell>
        <mxCell id="qneg2PHzCLRIxDqVpNJL-80" value="" style="strokeWidth=2;html=1;shape=stencil(rZRREkMwEIZPk3cSF2i1vUewKiMSkyjt7YvETJGYKWY82H/j8+/ahUisC1oDwoGgFSByQxhfJeOg+pte7YwUBSYs5iHVNaSN0VqqGE04mIxulCyhY1ljH2GiAMWaIUvuKLj0Z4aLxAlNy6eSL5HNElMaOGe1Hgy+DSi07/6YkMydTaH1jW2I8MNJNzY3DtR0KGCVmNKVbH+suZ250ROBM+ElhDsIC8R2A9yIRYd3EMhhwgllRMHhZi4Qe77orkJSLrV/Kt3Dd0LH/hpgEvf6aj1G1bPSJM6lgo1dzxnn3o0cySvAqJpf2Ch8AQ==);whiteSpace=wrap;points=[[0,0.5,0,0,0],[0.5,0,0,0,0],[1,0.5,0,0,0]];rotation=90;labelBackgroundColor=none;" vertex="1" parent="qneg2PHzCLRIxDqVpNJL-82">
          <mxGeometry x="9" y="5" width="40" height="30" as="geometry" />
        </mxCell>
        <mxCell id="qneg2PHzCLRIxDqVpNJL-81" value="M" style="text;html=1;strokeColor=none;fillColor=none;align=center;verticalAlign=middle;whiteSpace=wrap;rounded=0;fontSize=11;fontFamily=Helvetica;fontColor=default;labelBackgroundColor=none;" vertex="1" parent="qneg2PHzCLRIxDqVpNJL-82">
          <mxGeometry y="4" width="20" height="30" as="geometry" />
        </mxCell>
        <mxCell id="qneg2PHzCLRIxDqVpNJL-89" style="edgeStyle=orthogonalEdgeStyle;shape=connector;rounded=0;jumpStyle=arc;jumpSize=10;orthogonalLoop=1;jettySize=auto;html=1;exitX=0.5;exitY=1;exitDx=0;exitDy=0;entryX=0.5;entryY=0;entryDx=0;entryDy=0;entryPerimeter=0;labelBackgroundColor=none;strokeColor=#6F0000;fontFamily=Helvetica;fontSize=11;fontColor=default;endArrow=none;endFill=0;fillColor=#a20025;" edge="1" parent="1" source="qneg2PHzCLRIxDqVpNJL-86" target="qneg2PHzCLRIxDqVpNJL-88">
          <mxGeometry relative="1" as="geometry" />
        </mxCell>
        <mxCell id="qneg2PHzCLRIxDqVpNJL-86" value="T" style="ellipse;whiteSpace=wrap;html=1;aspect=fixed;labelBackgroundColor=none;" vertex="1" parent="1">
          <mxGeometry x="680" y="690" width="30" height="30" as="geometry" />
        </mxCell>
        <mxCell id="qneg2PHzCLRIxDqVpNJL-84" style="edgeStyle=orthogonalEdgeStyle;shape=connector;rounded=0;jumpStyle=arc;jumpSize=10;orthogonalLoop=1;jettySize=auto;html=1;exitX=1;exitY=0.5;exitDx=0;exitDy=0;exitPerimeter=0;labelBackgroundColor=none;strokeColor=#6F0000;fontFamily=Helvetica;fontSize=11;fontColor=default;endArrow=none;endFill=0;entryX=0.5;entryY=0;entryDx=0;entryDy=0;fillColor=#a20025;" edge="1" parent="1" source="qneg2PHzCLRIxDqVpNJL-175" target="qneg2PHzCLRIxDqVpNJL-86">
          <mxGeometry relative="1" as="geometry">
            <mxPoint x="700" y="690" as="targetPoint" />
            <Array as="points">
              <mxPoint x="739" y="630" />
              <mxPoint x="739" y="640" />
              <mxPoint x="695" y="640" />
            </Array>
          </mxGeometry>
        </mxCell>
        <mxCell id="qneg2PHzCLRIxDqVpNJL-101" style="edgeStyle=orthogonalEdgeStyle;shape=connector;rounded=0;jumpStyle=arc;jumpSize=10;orthogonalLoop=1;jettySize=auto;html=1;exitX=0.5;exitY=1;exitDx=0;exitDy=0;exitPerimeter=0;labelBackgroundColor=none;strokeColor=#6F0000;fontFamily=Helvetica;fontSize=11;fontColor=default;endArrow=none;endFill=0;fillColor=#a20025;entryX=0.124;entryY=0.5;entryDx=0;entryDy=0;entryPerimeter=0;" edge="1" parent="1" source="qneg2PHzCLRIxDqVpNJL-88" target="qneg2PHzCLRIxDqVpNJL-156">
          <mxGeometry relative="1" as="geometry">
            <mxPoint x="695" y="780" as="targetPoint" />
            <Array as="points">
              <mxPoint x="695" y="808" />
              <mxPoint x="705" y="808" />
            </Array>
          </mxGeometry>
        </mxCell>
        <mxCell id="qneg2PHzCLRIxDqVpNJL-88" value="mÂ³" style="strokeWidth=2;html=1;shape=stencil(lVLREoIgEPwa3g3sA4rqPy69klHBQdL6+4DTmYx0phke2N1jd+cGJmRfQYeMZxpaZOLEOD8a1aD1F8+OROUZwWoJoe+wcMQNYBVcGySld9bUOKrSTU+UrtAqF1RxZtnBz4Qj5BWK+m7NQ5cLYZZtCEiCv2o9CU7otUCMX34aU8ONgQ5C90SY5dYMuBa9229lzw6N0h8O+T8WQno+KRjZlX0KeTMWNxa9uo/omjyOLP2dSLwB);whiteSpace=wrap;fillColor=#ffffff;shadow=0;verticalAlign=bottom;spacingBottom=4;points=[[0,0.5,0,0,0],[0.5,0,0,0,0],[0.5,1,0,0,0],[1,0.5,0,0,0]];labelBackgroundColor=none;" vertex="1" parent="1">
          <mxGeometry x="680" y="740" width="30" height="29" as="geometry" />
        </mxCell>
        <mxCell id="qneg2PHzCLRIxDqVpNJL-100" style="edgeStyle=orthogonalEdgeStyle;shape=connector;rounded=0;jumpStyle=arc;jumpSize=10;orthogonalLoop=1;jettySize=auto;html=1;exitX=0.5;exitY=1;exitDx=0;exitDy=0;labelBackgroundColor=none;strokeColor=#001DBC;fontFamily=Helvetica;fontSize=11;fontColor=default;endArrow=none;endFill=0;fillColor=#0050ef;entryX=0.876;entryY=0.5;entryDx=0;entryDy=0;entryPerimeter=0;" edge="1" parent="1" source="qneg2PHzCLRIxDqVpNJL-91" target="qneg2PHzCLRIxDqVpNJL-156">
          <mxGeometry relative="1" as="geometry">
            <mxPoint x="741" y="780" as="targetPoint" />
            <Array as="points">
              <mxPoint x="741" y="752" />
              <mxPoint x="740" y="752" />
              <mxPoint x="740" y="808" />
              <mxPoint x="732" y="808" />
            </Array>
          </mxGeometry>
        </mxCell>
        <mxCell id="qneg2PHzCLRIxDqVpNJL-91" value="T" style="ellipse;whiteSpace=wrap;html=1;aspect=fixed;labelBackgroundColor=none;" vertex="1" parent="1">
          <mxGeometry x="726" y="690" width="30" height="30" as="geometry" />
        </mxCell>
        <mxCell id="qneg2PHzCLRIxDqVpNJL-94" style="edgeStyle=orthogonalEdgeStyle;shape=connector;rounded=0;jumpStyle=arc;jumpSize=10;orthogonalLoop=1;jettySize=auto;html=1;exitX=0.5;exitY=1;exitDx=0;exitDy=0;entryX=0.5;entryY=0;entryDx=0;entryDy=0;entryPerimeter=0;labelBackgroundColor=none;strokeColor=#6F0000;fontFamily=Helvetica;fontSize=11;fontColor=default;endArrow=none;endFill=0;fillColor=#a20025;" edge="1" parent="1" source="qneg2PHzCLRIxDqVpNJL-95" target="qneg2PHzCLRIxDqVpNJL-96">
          <mxGeometry relative="1" as="geometry" />
        </mxCell>
        <mxCell id="qneg2PHzCLRIxDqVpNJL-95" value="T" style="ellipse;whiteSpace=wrap;html=1;aspect=fixed;labelBackgroundColor=none;" vertex="1" parent="1">
          <mxGeometry x="790" y="690" width="30" height="30" as="geometry" />
        </mxCell>
        <mxCell id="qneg2PHzCLRIxDqVpNJL-102" style="edgeStyle=orthogonalEdgeStyle;shape=connector;rounded=0;jumpStyle=arc;jumpSize=10;orthogonalLoop=1;jettySize=auto;html=1;exitX=0.5;exitY=1;exitDx=0;exitDy=0;exitPerimeter=0;labelBackgroundColor=none;strokeColor=#6F0000;fontFamily=Helvetica;fontSize=11;fontColor=default;endArrow=none;endFill=0;fillColor=#a20025;entryX=0.124;entryY=0.5;entryDx=0;entryDy=0;entryPerimeter=0;" edge="1" parent="1" source="qneg2PHzCLRIxDqVpNJL-96" target="qneg2PHzCLRIxDqVpNJL-158">
          <mxGeometry relative="1" as="geometry">
            <mxPoint x="805" y="780" as="targetPoint" />
            <Array as="points">
              <mxPoint x="805" y="808" />
            </Array>
          </mxGeometry>
        </mxCell>
        <mxCell id="qneg2PHzCLRIxDqVpNJL-96" value="mÂ³" style="strokeWidth=2;html=1;shape=stencil(lVLREoIgEPwa3g3sA4rqPy69klHBQdL6+4DTmYx0phke2N1jd+cGJmRfQYeMZxpaZOLEOD8a1aD1F8+OROUZwWoJoe+wcMQNYBVcGySld9bUOKrSTU+UrtAqF1RxZtnBz4Qj5BWK+m7NQ5cLYZZtCEiCv2o9CU7otUCMX34aU8ONgQ5C90SY5dYMuBa9229lzw6N0h8O+T8WQno+KRjZlX0KeTMWNxa9uo/omjyOLP2dSLwB);whiteSpace=wrap;fillColor=#ffffff;shadow=0;verticalAlign=bottom;spacingBottom=4;points=[[0,0.5,0,0,0],[0.5,0,0,0,0],[0.5,1,0,0,0],[1,0.5,0,0,0]];labelBackgroundColor=none;" vertex="1" parent="1">
          <mxGeometry x="790" y="740" width="30" height="29" as="geometry" />
        </mxCell>
        <mxCell id="qneg2PHzCLRIxDqVpNJL-103" style="edgeStyle=orthogonalEdgeStyle;shape=connector;rounded=0;jumpStyle=arc;jumpSize=10;orthogonalLoop=1;jettySize=auto;html=1;exitX=0.5;exitY=1;exitDx=0;exitDy=0;labelBackgroundColor=none;strokeColor=#001DBC;fontFamily=Helvetica;fontSize=11;fontColor=default;endArrow=none;endFill=0;fillColor=#0050ef;entryX=0.876;entryY=0.5;entryDx=0;entryDy=0;entryPerimeter=0;" edge="1" parent="1" source="qneg2PHzCLRIxDqVpNJL-97" target="qneg2PHzCLRIxDqVpNJL-158">
          <mxGeometry relative="1" as="geometry">
            <mxPoint x="851" y="780" as="targetPoint" />
            <Array as="points">
              <mxPoint x="851" y="807" />
              <mxPoint x="842" y="807" />
            </Array>
          </mxGeometry>
        </mxCell>
        <mxCell id="qneg2PHzCLRIxDqVpNJL-97" value="T" style="ellipse;whiteSpace=wrap;html=1;aspect=fixed;labelBackgroundColor=none;" vertex="1" parent="1">
          <mxGeometry x="836" y="690" width="30" height="30" as="geometry" />
        </mxCell>
        <mxCell id="qneg2PHzCLRIxDqVpNJL-98" style="edgeStyle=orthogonalEdgeStyle;shape=connector;rounded=0;jumpStyle=arc;jumpSize=10;orthogonalLoop=1;jettySize=auto;html=1;entryX=0.5;entryY=0;entryDx=0;entryDy=0;labelBackgroundColor=none;strokeColor=#6F0000;fontFamily=Helvetica;fontSize=11;fontColor=default;endArrow=none;endFill=0;fillColor=#a20025;exitX=1;exitY=0.5;exitDx=0;exitDy=0;exitPerimeter=0;" edge="1" parent="1" source="qneg2PHzCLRIxDqVpNJL-175" target="qneg2PHzCLRIxDqVpNJL-95">
          <mxGeometry relative="1" as="geometry">
            <mxPoint x="749" y="620" as="sourcePoint" />
            <Array as="points">
              <mxPoint x="739" y="640" />
              <mxPoint x="805" y="640" />
            </Array>
          </mxGeometry>
        </mxCell>
        <mxCell id="qneg2PHzCLRIxDqVpNJL-104" value="W1" style="text;html=1;align=center;verticalAlign=middle;resizable=0;points=[];autosize=1;strokeColor=none;fillColor=none;fontSize=13;fontFamily=Helvetica;fontColor=default;labelBackgroundColor=none;" vertex="1" parent="1">
          <mxGeometry x="720" y="810" width="40" height="30" as="geometry" />
        </mxCell>
        <mxCell id="qneg2PHzCLRIxDqVpNJL-105" value="W2" style="text;html=1;align=center;verticalAlign=middle;resizable=0;points=[];autosize=1;strokeColor=none;fillColor=none;fontSize=13;fontFamily=Helvetica;fontColor=default;labelBackgroundColor=none;" vertex="1" parent="1">
          <mxGeometry x="831" y="810" width="40" height="30" as="geometry" />
        </mxCell>
        <mxCell id="qneg2PHzCLRIxDqVpNJL-112" style="edgeStyle=orthogonalEdgeStyle;shape=connector;rounded=0;jumpStyle=arc;jumpSize=10;orthogonalLoop=1;jettySize=auto;html=1;exitX=0.93;exitY=0.75;exitDx=0;exitDy=0;exitPerimeter=0;entryX=0;entryY=0.5;entryDx=0;entryDy=0;entryPerimeter=0;labelBackgroundColor=none;strokeColor=#001DBC;fontFamily=Helvetica;fontSize=11;fontColor=default;endArrow=none;endFill=0;fillColor=#0050ef;" edge="1" parent="1" source="qneg2PHzCLRIxDqVpNJL-106" target="qneg2PHzCLRIxDqVpNJL-111">
          <mxGeometry relative="1" as="geometry" />
        </mxCell>
        <mxCell id="qneg2PHzCLRIxDqVpNJL-106" value="" style="strokeWidth=2;html=1;shape=stencil(pVPbEoIgEP0a3o3tpcey+g/ULRkRHCCtv09Fp4hkuszwwDln9+zOshBITckaJDSRrEYCe0LpTnGBur/0bOeodeJg6UNmGsyt41qmOcsEOsVYrSrseGGnFC5L1NwOKhxIsu1jhgNpxvLqrNVFFp4wyygEbwyGtV86uzo4oZuHCD2+9XZNRgIaNrQfCLNcqxYfpcErDdHas4Pg8smBbv62WPkDiE/goy5WP1jAFw6Q9nww6JFdWA1IT0pjZGcW33V0DZJH1n2DkbgD);whiteSpace=wrap;points=[[0.07,0.25,0,0,0],[0.07,0.75,0,0,0],[0.93,0.25,0,0,0],[0.93,0.75,0,0,0]];labelBackgroundColor=none;fillColor=#fcfbfd;" vertex="1" parent="1">
          <mxGeometry x="950" y="472.68" width="61" height="64.63" as="geometry" />
        </mxCell>
        <mxCell id="qneg2PHzCLRIxDqVpNJL-110" style="edgeStyle=orthogonalEdgeStyle;shape=connector;rounded=0;jumpStyle=arc;jumpSize=10;orthogonalLoop=1;jettySize=auto;html=1;exitX=1;exitY=0.5;exitDx=0;exitDy=0;exitPerimeter=0;entryX=0.93;entryY=0.75;entryDx=0;entryDy=0;entryPerimeter=0;labelBackgroundColor=none;strokeColor=#001DBC;fontFamily=Helvetica;fontSize=11;fontColor=default;endArrow=none;endFill=0;fillColor=#0050ef;" edge="1" parent="1" source="qneg2PHzCLRIxDqVpNJL-109" target="qneg2PHzCLRIxDqVpNJL-106">
          <mxGeometry relative="1" as="geometry">
            <Array as="points">
              <mxPoint x="1120" y="580" />
              <mxPoint x="1120" y="521" />
            </Array>
          </mxGeometry>
        </mxCell>
        <mxCell id="qneg2PHzCLRIxDqVpNJL-172" style="edgeStyle=orthogonalEdgeStyle;shape=connector;rounded=0;jumpStyle=arc;jumpSize=10;orthogonalLoop=1;jettySize=auto;html=1;exitX=0;exitY=0.5;exitDx=0;exitDy=0;exitPerimeter=0;entryX=0.447;entryY=0.021;entryDx=0;entryDy=0;entryPerimeter=0;labelBackgroundColor=default;strokeColor=#6F0000;fontFamily=Helvetica;fontSize=11;fontColor=default;endArrow=none;endFill=0;fillColor=#a20025;" edge="1" parent="1" source="qneg2PHzCLRIxDqVpNJL-109" target="qneg2PHzCLRIxDqVpNJL-118">
          <mxGeometry relative="1" as="geometry">
            <Array as="points">
              <mxPoint x="1121" y="670" />
              <mxPoint x="1080" y="670" />
            </Array>
          </mxGeometry>
        </mxCell>
        <mxCell id="qneg2PHzCLRIxDqVpNJL-109" value="" style="strokeWidth=2;html=1;shape=stencil(fVLREoIgEPwa3h1wnOmxrP6D9EpGBAZI6+9D0ClCmeGB3T329gBEatNRBQgXgg6AyBlhfJKMg3Ybx06BKosAuxhSo6CxgRupZvTGISjGatnDxFq7HGGiA83srJILKo6uZl6kvtGmf2j5FG0krDJwzpSBtPdfsleAC3pHCOHrpncImSlQdI6fCKs8yBG+rauoNSlzvVcHzsSPAzlEFvn42xZxiCo/v+OTCT278yakvksNmcfavVDvmhz2bPh/nvgA);whiteSpace=wrap;points=[[0,0.5,0,0,0],[1,0.5,0,0,0]];rotation=-90;labelBackgroundColor=none;" vertex="1" parent="1">
          <mxGeometry x="1106" y="580" width="30" height="30" as="geometry" />
        </mxCell>
        <mxCell id="qneg2PHzCLRIxDqVpNJL-113" style="edgeStyle=orthogonalEdgeStyle;shape=connector;rounded=0;jumpStyle=arc;jumpSize=10;orthogonalLoop=1;jettySize=auto;html=1;exitX=1;exitY=0.5;exitDx=0;exitDy=0;exitPerimeter=0;labelBackgroundColor=none;strokeColor=#001DBC;fontFamily=Helvetica;fontSize=11;fontColor=default;endArrow=none;endFill=0;startArrow=blockThin;startFill=1;entryX=0.004;entryY=0.496;entryDx=0;entryDy=0;entryPerimeter=0;fillColor=#0050ef;" edge="1" parent="1" source="qneg2PHzCLRIxDqVpNJL-111" target="qneg2PHzCLRIxDqVpNJL-114">
          <mxGeometry relative="1" as="geometry">
            <mxPoint x="1205" y="522" as="targetPoint" />
          </mxGeometry>
        </mxCell>
        <mxCell id="qneg2PHzCLRIxDqVpNJL-111" value="mÂ³" style="strokeWidth=2;html=1;shape=stencil(lVLREoIgEPwa3g3sA4rqPy69klHBQdL6+4DTmYx0phke2N1jd+cGJmRfQYeMZxpaZOLEOD8a1aD1F8+OROUZwWoJoe+wcMQNYBVcGySld9bUOKrSTU+UrtAqF1RxZtnBz4Qj5BWK+m7NQ5cLYZZtCEiCv2o9CU7otUCMX34aU8ONgQ5C90SY5dYMuBa9229lzw6N0h8O+T8WQno+KRjZlX0KeTMWNxa9uo/omjyOLP2dSLwB);whiteSpace=wrap;fillColor=#ffffff;shadow=0;verticalAlign=bottom;spacingBottom=4;points=[[0,0.5,0,0,0],[0.5,0,0,0,0],[0.5,1,0,0,0],[1,0.5,0,0,0]];labelBackgroundColor=none;" vertex="1" parent="1">
          <mxGeometry x="1135" y="507.31" width="30" height="29" as="geometry" />
        </mxCell>
        <mxCell id="qneg2PHzCLRIxDqVpNJL-114" value="&lt;font style=&quot;font-size: 13px;&quot;&gt;BKW&lt;/font&gt;" style="text;html=1;align=center;verticalAlign=middle;resizable=0;points=[];autosize=1;strokeColor=none;fillColor=none;fontSize=13;fontFamily=Helvetica;fontColor=default;labelBackgroundColor=none;" vertex="1" parent="1">
          <mxGeometry x="1205" y="506.31" width="50" height="30" as="geometry" />
        </mxCell>
        <mxCell id="qneg2PHzCLRIxDqVpNJL-118" value="W1" style="text;html=1;align=center;verticalAlign=middle;resizable=0;points=[];autosize=1;strokeColor=none;fillColor=none;fontSize=13;fontFamily=Helvetica;fontColor=default;labelBackgroundColor=none;" vertex="1" parent="1">
          <mxGeometry x="1062" y="689" width="40" height="30" as="geometry" />
        </mxCell>
        <mxCell id="qneg2PHzCLRIxDqVpNJL-119" value="W2" style="text;html=1;align=center;verticalAlign=middle;resizable=0;points=[];autosize=1;strokeColor=none;fillColor=none;fontSize=13;fontFamily=Helvetica;fontColor=default;labelBackgroundColor=none;" vertex="1" parent="1">
          <mxGeometry x="1022" y="689" width="40" height="30" as="geometry" />
        </mxCell>
        <mxCell id="qneg2PHzCLRIxDqVpNJL-170" style="edgeStyle=orthogonalEdgeStyle;shape=connector;rounded=0;jumpStyle=arc;jumpSize=10;orthogonalLoop=1;jettySize=auto;html=1;exitX=0.5;exitY=1;exitDx=0;exitDy=0;exitPerimeter=0;entryX=0.506;entryY=0.044;entryDx=0;entryDy=0;entryPerimeter=0;labelBackgroundColor=default;strokeColor=#6F0000;fontFamily=Helvetica;fontSize=11;fontColor=default;endArrow=none;endFill=0;fillColor=#a20025;" edge="1" parent="1" source="qneg2PHzCLRIxDqVpNJL-120" target="qneg2PHzCLRIxDqVpNJL-119">
          <mxGeometry relative="1" as="geometry" />
        </mxCell>
        <mxCell id="qneg2PHzCLRIxDqVpNJL-120" value="mÂ³" style="strokeWidth=2;html=1;shape=stencil(lVLREoIgEPwa3g3sA4rqPy69klHBQdL6+4DTmYx0phke2N1jd+cGJmRfQYeMZxpaZOLEOD8a1aD1F8+OROUZwWoJoe+wcMQNYBVcGySld9bUOKrSTU+UrtAqF1RxZtnBz4Qj5BWK+m7NQ5cLYZZtCEiCv2o9CU7otUCMX34aU8ONgQ5C90SY5dYMuBa9229lzw6N0h8O+T8WQno+KRjZlX0KeTMWNxa9uo/omjyOLP2dSLwB);whiteSpace=wrap;fillColor=#ffffff;shadow=0;verticalAlign=bottom;spacingBottom=4;points=[[0,0.5,0,0,0],[0.5,0,0,0,0],[0.5,1,0,0,0],[1,0.5,0,0,0]];labelBackgroundColor=none;" vertex="1" parent="1">
          <mxGeometry x="1027" y="619" width="30" height="29" as="geometry" />
        </mxCell>
        <mxCell id="qneg2PHzCLRIxDqVpNJL-123" style="edgeStyle=orthogonalEdgeStyle;shape=connector;rounded=0;jumpStyle=arc;jumpSize=10;orthogonalLoop=1;jettySize=auto;html=1;exitX=0.93;exitY=0.75;exitDx=0;exitDy=0;exitPerimeter=0;entryX=0.25;entryY=0.04;entryDx=0;entryDy=0;entryPerimeter=0;labelBackgroundColor=default;strokeColor=#6F0000;fontFamily=Helvetica;fontSize=11;fontColor=default;endArrow=none;endFill=0;fillColor=#a20025;" edge="1" parent="1" source="qneg2PHzCLRIxDqVpNJL-122" target="qneg2PHzCLRIxDqVpNJL-64">
          <mxGeometry relative="1" as="geometry">
            <Array as="points">
              <mxPoint x="819" y="270" />
              <mxPoint x="818" y="270" />
            </Array>
          </mxGeometry>
        </mxCell>
        <mxCell id="qneg2PHzCLRIxDqVpNJL-122" value="" style="strokeWidth=2;html=1;shape=stencil(pVPbEoIgEP0a3o3tpcey+g/ULRkRHCCtv09Fp4hkuszwwDln9+zOshBITckaJDSRrEYCe0LpTnGBur/0bOeodeJg6UNmGsyt41qmOcsEOsVYrSrseGGnFC5L1NwOKhxIsu1jhgNpxvLqrNVFFp4wyygEbwyGtV86uzo4oZuHCD2+9XZNRgIaNrQfCLNcqxYfpcErDdHas4Pg8smBbv62WPkDiE/goy5WP1jAFw6Q9nww6JFdWA1IT0pjZGcW33V0DZJH1n2DkbgD);whiteSpace=wrap;points=[[0.07,0.25,0,0,0],[0.07,0.75,0,0,0],[0.93,0.25,0,0,0],[0.93,0.75,0,0,0]];labelBackgroundColor=none;fillColor=#fcfbfd;rotation=90;" vertex="1" parent="1">
          <mxGeometry x="804.5" y="148" width="61" height="64.63" as="geometry" />
        </mxCell>
        <mxCell id="qneg2PHzCLRIxDqVpNJL-127" style="edgeStyle=orthogonalEdgeStyle;shape=connector;rounded=0;jumpStyle=arc;jumpSize=10;orthogonalLoop=1;jettySize=auto;html=1;exitX=0;exitY=0.5;exitDx=0;exitDy=0;exitPerimeter=0;entryX=0.75;entryY=0.04;entryDx=0;entryDy=0;entryPerimeter=0;labelBackgroundColor=default;strokeColor=#001DBC;fontFamily=Helvetica;fontSize=11;fontColor=default;endArrow=none;endFill=0;fillColor=#0050ef;" edge="1" parent="1" source="qneg2PHzCLRIxDqVpNJL-129" target="qneg2PHzCLRIxDqVpNJL-64">
          <mxGeometry relative="1" as="geometry">
            <mxPoint x="850" y="264.63" as="sourcePoint" />
            <Array as="points">
              <mxPoint x="851" y="270" />
              <mxPoint x="853" y="270" />
            </Array>
          </mxGeometry>
        </mxCell>
        <mxCell id="qneg2PHzCLRIxDqVpNJL-128" style="edgeStyle=orthogonalEdgeStyle;shape=connector;rounded=0;jumpStyle=arc;jumpSize=10;orthogonalLoop=1;jettySize=auto;html=1;exitX=1.011;exitY=0.5;exitDx=0;exitDy=0;exitPerimeter=0;entryX=0.93;entryY=0.25;entryDx=0;entryDy=0;entryPerimeter=0;labelBackgroundColor=default;strokeColor=#001DBC;fontFamily=Helvetica;fontSize=11;fontColor=default;endArrow=none;endFill=0;fillColor=#0050ef;" edge="1" parent="1" source="qneg2PHzCLRIxDqVpNJL-129" target="qneg2PHzCLRIxDqVpNJL-122">
          <mxGeometry relative="1" as="geometry">
            <mxPoint x="850" y="224.63" as="sourcePoint" />
          </mxGeometry>
        </mxCell>
        <mxCell id="qneg2PHzCLRIxDqVpNJL-129" value="" style="strokeWidth=2;html=1;shape=stencil(fVLREoIgEPwa3h1wnOmxrP6D9EpGBAZI6+9D0ClCmeGB3T329gBEatNRBQgXgg6AyBlhfJKMg3Ybx06BKosAuxhSo6CxgRupZvTGISjGatnDxFq7HGGiA83srJILKo6uZl6kvtGmf2j5FG0krDJwzpSBtPdfsleAC3pHCOHrpncImSlQdI6fCKs8yBG+rauoNSlzvVcHzsSPAzlEFvn42xZxiCo/v+OTCT278yakvksNmcfavVDvmhz2bPh/nvgA);whiteSpace=wrap;points=[[0,0.5,0,0,0],[1,0.5,0,0,0]];rotation=-90;labelBackgroundColor=none;" vertex="1" parent="1">
          <mxGeometry x="835.5" y="221" width="30" height="30" as="geometry" />
        </mxCell>
        <mxCell id="qneg2PHzCLRIxDqVpNJL-130" value="" style="group;labelBackgroundColor=none;rotation=90;" vertex="1" connectable="0" parent="1">
          <mxGeometry x="900" y="290" width="44" height="40" as="geometry" />
        </mxCell>
        <mxCell id="qneg2PHzCLRIxDqVpNJL-136" style="edgeStyle=orthogonalEdgeStyle;shape=connector;rounded=0;jumpStyle=none;jumpSize=10;orthogonalLoop=1;jettySize=auto;html=1;exitX=0;exitY=0.5;exitDx=0;exitDy=0;exitPerimeter=0;labelBackgroundColor=default;strokeColor=#6F0000;fontFamily=Helvetica;fontSize=11;fontColor=default;endArrow=none;endFill=0;fillColor=#a20025;" edge="1" parent="qneg2PHzCLRIxDqVpNJL-130" source="qneg2PHzCLRIxDqVpNJL-131">
          <mxGeometry relative="1" as="geometry">
            <mxPoint x="90" y="-80" as="targetPoint" />
          </mxGeometry>
        </mxCell>
        <mxCell id="qneg2PHzCLRIxDqVpNJL-137" style="edgeStyle=orthogonalEdgeStyle;shape=connector;rounded=0;jumpStyle=none;jumpSize=10;orthogonalLoop=1;jettySize=auto;html=1;exitX=0;exitY=0.5;exitDx=0;exitDy=0;exitPerimeter=0;labelBackgroundColor=default;strokeColor=#6F0000;fontFamily=Helvetica;fontSize=11;fontColor=default;endArrow=none;endFill=0;fillColor=#a20025;" edge="1" parent="qneg2PHzCLRIxDqVpNJL-130" source="qneg2PHzCLRIxDqVpNJL-131">
          <mxGeometry relative="1" as="geometry">
            <mxPoint x="120" y="-80" as="targetPoint" />
          </mxGeometry>
        </mxCell>
        <mxCell id="qneg2PHzCLRIxDqVpNJL-138" style="edgeStyle=orthogonalEdgeStyle;shape=connector;rounded=0;jumpStyle=none;jumpSize=10;orthogonalLoop=1;jettySize=auto;html=1;exitX=0;exitY=0.5;exitDx=0;exitDy=0;exitPerimeter=0;labelBackgroundColor=default;strokeColor=#6F0000;fontFamily=Helvetica;fontSize=11;fontColor=default;endArrow=none;endFill=0;fillColor=#a20025;" edge="1" parent="qneg2PHzCLRIxDqVpNJL-130" source="qneg2PHzCLRIxDqVpNJL-131">
          <mxGeometry relative="1" as="geometry">
            <mxPoint x="150" y="-80" as="targetPoint" />
          </mxGeometry>
        </mxCell>
        <mxCell id="qneg2PHzCLRIxDqVpNJL-131" value="" style="strokeWidth=2;html=1;shape=stencil(rZRREkMwEIZPk3cSF2i1vUewKiMSkyjt7YvETJGYKWY82H/j8+/ahUisC1oDwoGgFSByQxhfJeOg+pte7YwUBSYs5iHVNaSN0VqqGE04mIxulCyhY1ljH2GiAMWaIUvuKLj0Z4aLxAlNy6eSL5HNElMaOGe1Hgy+DSi07/6YkMydTaH1jW2I8MNJNzY3DtR0KGCVmNKVbH+suZ250ROBM+ElhDsIC8R2A9yIRYd3EMhhwgllRMHhZi4Qe77orkJSLrV/Kt3Dd0LH/hpgEvf6aj1G1bPSJM6lgo1dzxnn3o0cySvAqJpf2Ch8AQ==);whiteSpace=wrap;points=[[0,0.5,0,0,0],[0.5,0,0,0,0],[1,0.5,0,0,0]];rotation=180;labelBackgroundColor=none;" vertex="1" parent="qneg2PHzCLRIxDqVpNJL-130">
          <mxGeometry x="2" y="12" width="40" height="30" as="geometry" />
        </mxCell>
        <mxCell id="qneg2PHzCLRIxDqVpNJL-132" value="M" style="text;html=1;strokeColor=none;fillColor=none;align=center;verticalAlign=middle;whiteSpace=wrap;rounded=0;fontSize=11;fontFamily=Helvetica;fontColor=default;labelBackgroundColor=none;rotation=0;" vertex="1" parent="qneg2PHzCLRIxDqVpNJL-130">
          <mxGeometry x="12" y="-7" width="20" height="30" as="geometry" />
        </mxCell>
        <mxCell id="qneg2PHzCLRIxDqVpNJL-143" style="edgeStyle=orthogonalEdgeStyle;shape=connector;rounded=0;jumpStyle=arc;jumpSize=10;orthogonalLoop=1;jettySize=auto;html=1;exitX=1;exitY=0.5;exitDx=0;exitDy=0;entryX=0;entryY=0.5;entryDx=0;entryDy=0;entryPerimeter=0;labelBackgroundColor=none;strokeColor=default;fontFamily=Helvetica;fontSize=11;fontColor=default;endArrow=none;endFill=0;" edge="1" parent="1">
          <mxGeometry relative="1" as="geometry">
            <mxPoint x="710" y="319" as="sourcePoint" />
            <mxPoint x="736" y="319" as="targetPoint" />
          </mxGeometry>
        </mxCell>
        <mxCell id="qneg2PHzCLRIxDqVpNJL-144" style="edgeStyle=orthogonalEdgeStyle;shape=connector;rounded=0;jumpStyle=arc;jumpSize=10;orthogonalLoop=1;jettySize=auto;html=1;exitX=1;exitY=0.5;exitDx=0;exitDy=0;exitPerimeter=0;entryX=0;entryY=0.29;entryDx=0;entryDy=0;entryPerimeter=0;labelBackgroundColor=none;strokeColor=default;fontFamily=Helvetica;fontSize=11;fontColor=default;endArrow=none;endFill=0;" edge="1" parent="1">
          <mxGeometry relative="1" as="geometry">
            <mxPoint x="766" y="319" as="sourcePoint" />
            <mxPoint x="800" y="318" as="targetPoint" />
          </mxGeometry>
        </mxCell>
        <mxCell id="qneg2PHzCLRIxDqVpNJL-149" style="edgeStyle=orthogonalEdgeStyle;shape=connector;rounded=0;jumpStyle=arc;jumpSize=10;orthogonalLoop=1;jettySize=auto;html=1;exitX=1;exitY=0.5;exitDx=0;exitDy=0;entryX=0;entryY=0.5;entryDx=0;entryDy=0;entryPerimeter=0;labelBackgroundColor=none;strokeColor=#6F0000;fontFamily=Helvetica;fontSize=11;fontColor=default;endArrow=none;endFill=0;fillColor=#a20025;" edge="1" parent="1">
          <mxGeometry relative="1" as="geometry">
            <mxPoint x="710" y="319" as="sourcePoint" />
            <mxPoint x="736" y="319" as="targetPoint" />
          </mxGeometry>
        </mxCell>
        <mxCell id="qneg2PHzCLRIxDqVpNJL-150" style="edgeStyle=orthogonalEdgeStyle;shape=connector;rounded=0;jumpStyle=arc;jumpSize=10;orthogonalLoop=1;jettySize=auto;html=1;exitX=1;exitY=0.5;exitDx=0;exitDy=0;exitPerimeter=0;entryX=0;entryY=0.29;entryDx=0;entryDy=0;entryPerimeter=0;labelBackgroundColor=none;strokeColor=#6F0000;fontFamily=Helvetica;fontSize=11;fontColor=default;endArrow=none;endFill=0;fillColor=#a20025;" edge="1" parent="1">
          <mxGeometry relative="1" as="geometry">
            <mxPoint x="766" y="319" as="sourcePoint" />
            <mxPoint x="800" y="318" as="targetPoint" />
          </mxGeometry>
        </mxCell>
        <mxCell id="qneg2PHzCLRIxDqVpNJL-156" value="" style="shape=mxgraph.pid.heat_exchangers.heater;html=1;pointerEvents=1;align=center;verticalLabelPosition=bottom;verticalAlign=top;dashed=0;fontFamily=Helvetica;fontSize=11;fontColor=default;" vertex="1" parent="1">
          <mxGeometry x="700" y="788" width="36" height="39" as="geometry" />
        </mxCell>
        <mxCell id="qneg2PHzCLRIxDqVpNJL-158" value="" style="shape=mxgraph.pid.heat_exchangers.heater;html=1;pointerEvents=1;align=center;verticalLabelPosition=bottom;verticalAlign=top;dashed=0;fontFamily=Helvetica;fontSize=11;fontColor=default;" vertex="1" parent="1">
          <mxGeometry x="810" y="788" width="36" height="39" as="geometry" />
        </mxCell>
        <mxCell id="qneg2PHzCLRIxDqVpNJL-165" style="edgeStyle=orthogonalEdgeStyle;shape=connector;rounded=0;jumpStyle=arc;jumpSize=10;orthogonalLoop=1;jettySize=auto;html=1;exitX=1;exitY=0.5;exitDx=0;exitDy=0;exitPerimeter=0;entryX=0;entryY=0.5;entryDx=0;entryDy=0;labelBackgroundColor=none;strokeColor=#6F0000;fontFamily=Helvetica;fontSize=11;fontColor=default;endArrow=none;endFill=0;fillColor=#a20025;" edge="1" parent="1" source="qneg2PHzCLRIxDqVpNJL-44" target="qneg2PHzCLRIxDqVpNJL-59">
          <mxGeometry relative="1" as="geometry">
            <mxPoint x="570" y="319" as="sourcePoint" />
            <mxPoint x="680" y="319" as="targetPoint" />
          </mxGeometry>
        </mxCell>
        <mxCell id="qneg2PHzCLRIxDqVpNJL-166" value="FÃ¼hrungspuffer" style="text;html=1;align=center;verticalAlign=middle;resizable=0;points=[];autosize=1;strokeColor=none;fillColor=none;fontSize=11;fontFamily=Helvetica;fontColor=default;" vertex="1" parent="1">
          <mxGeometry x="345" y="390" width="100" height="30" as="geometry" />
        </mxCell>
      </root>
    </mxGraphModel>
  </diagram>
</mxfile>
